<svg id="visual" viewBox="0 0 900 600" width="900" height="600" xmlns="http://www.w3.org/2000/svg" xmlns:xlink="http://www.w3.org/1999/xlink" version="1.1"><rect x="0" y="0" width="900" height="600" fill="#001220"></rect><path d="M0 416L21.5 421.5C43 427 86 438 128.8 439.8C171.7 441.7 214.3 434.3 257.2 429.8C300 425.3 343 423.7 385.8 414.7C428.7 405.7 471.3 389.3 514.2 390.5C557 391.7 600 410.3 642.8 411.7C685.7 413 728.3 397 771.2 392.7C814 388.3 857 395.7 878.5 399.3L900 403L900 601L878.5 601C857 601 814 601 771.2 601C728.3 601 685.7 601 642.8 601C600 601 557 601 514.2 601C471.3 601 428.7 601 385.8 601C343 601 300 601 257.2 601C214.3 601 171.7 601 128.8 601C86 601 43 601 21.5 601L0 601Z" fill="#4facf7"></path><path d="M0 434L21.5 433C43 432 86 430 128.8 428.2C171.7 426.3 214.3 424.7 257.2 420.2C300 415.7 343 408.3 385.8 415.3C428.7 422.3 471.3 443.7 514.2 452.7C557 461.7 600 458.3 642.8 450.2C685.7 442 728.3 429 771.2 431C814 433 857 450 878.5 458.5L900 467L900 601L878.5 601C857 601 814 601 771.2 601C728.3 601 685.7 601 642.8 601C600 601 557 601 514.2 601C471.3 601 428.7 601 385.8 601C343 601 300 601 257.2 601C214.3 601 171.7 601 128.8 601C86 601 43 601 21.5 601L0 601Z" fill="#2b9dfc"></path><path d="M0 510L21.5 504.2C43 498.3 86 486.7 128.8 478.3C171.7 470 214.3 465 257.2 462C300 459 343 458 385.8 456C428.7 454 471.3 451 514.2 458.8C557 466.7 600 485.3 642.8 490C685.7 494.7 728.3 485.3 771.2 481.8C814 478.3 857 480.7 878.5 481.8L900 483L900 601L878.5 601C857 601 814 601 771.2 601C728.3 601 685.7 601 642.8 601C600 601 557 601 514.2 601C471.3 601 428.7 601 385.8 601C343 601 300 601 257.2 601C214.3 601 171.7 601 128.8 601C86 601 43 601 21.5 601L0 601Z" fill="#008cff"></path><path d="M0 503L21.5 509.3C43 515.7 86 528.3 128.8 532.3C171.7 536.3 214.3 531.7 257.2 527.8C300 524 343 521 385.8 516.2C428.7 511.3 471.3 504.7 514.2 505C557 505.3 600 512.7 642.8 515.7C685.7 518.7 728.3 517.3 771.2 518C814 518.7 857 521.3 878.5 522.7L900 524L900 601L878.5 601C857 601 814 601 771.2 601C728.3 601 685.7 601 642.8 601C600 601 557 601 514.2 601C471.3 601 428.7 601 385.8 601C343 601 300 601 257.2 601C214.3 601 171.7 601 128.8 601C86 601 43 601 21.5 601L0 601Z" fill="#007aff"></path><path d="M0 557L21.5 558.8C43 560.7 86 564.3 128.8 562.8C171.7 561.3 214.3 554.7 257.2 553.3C300 552 343 556 385.8 558.2C428.7 560.3 471.3 560.7 514.2 558.8C557 557 600 553 642.8 550.3C685.7 547.7 728.3 546.3 771.2 544.5C814 542.7 857 540.3 878.5 539.2L900 538L900 601L878.5 601C857 601 814 601 771.2 601C728.3 601 685.7 601 642.8 601C600 601 557 601 514.2 601C471.3 601 428.7 601 385.8 601C343 601 300 601 257.2 601C214.3 601 171.7 601 128.8 601C86 601 43 601 21.5 601L0 601Z" fill="#0066ff"></path></svg>