<svg id="visual" viewBox="0 0 900 600" width="900" height="600" xmlns="http://www.w3.org/2000/svg" xmlns:xlink="http://www.w3.org/1999/xlink" version="1.1"><rect x="0" y="0" width="900" height="600" fill="#001220"></rect><path d="M0 404L21.5 409.2C43 414.3 86 424.7 128.8 431.7C171.7 438.7 214.3 442.3 257.2 437.3C300 432.3 343 418.7 385.8 411.8C428.7 405 471.3 405 514.2 410C557 415 600 425 642.8 415.8C685.7 406.7 728.3 378.3 771.2 372.2C814 366 857 382 878.5 390L900 398L900 601L878.5 601C857 601 814 601 771.2 601C728.3 601 685.7 601 642.8 601C600 601 557 601 514.2 601C471.3 601 428.7 601 385.8 601C343 601 300 601 257.2 601C214.3 601 171.7 601 128.8 601C86 601 43 601 21.5 601L0 601Z" fill="#b00c00"></path><path d="M0 417L21.5 419.5C43 422 86 427 128.8 434C171.7 441 214.3 450 257.2 444.3C300 438.7 343 418.3 385.8 421.2C428.7 424 471.3 450 514.2 463.3C557 476.7 600 477.3 642.8 473.3C685.7 469.3 728.3 460.7 771.2 453.5C814 446.3 857 440.7 878.5 437.8L900 435L900 601L878.5 601C857 601 814 601 771.2 601C728.3 601 685.7 601 642.8 601C600 601 557 601 514.2 601C471.3 601 428.7 601 385.8 601C343 601 300 601 257.2 601C214.3 601 171.7 601 128.8 601C86 601 43 601 21.5 601L0 601Z" fill="#a10903"></path><path d="M0 499L21.5 493.2C43 487.3 86 475.7 128.8 474.8C171.7 474 214.3 484 257.2 485.5C300 487 343 480 385.8 478.5C428.7 477 471.3 481 514.2 476.5C557 472 600 459 642.8 451.8C685.7 444.7 728.3 443.3 771.2 442.2C814 441 857 440 878.5 439.5L900 439L900 601L878.5 601C857 601 814 601 771.2 601C728.3 601 685.7 601 642.8 601C600 601 557 601 514.2 601C471.3 601 428.7 601 385.8 601C343 601 300 601 257.2 601C214.3 601 171.7 601 128.8 601C86 601 43 601 21.5 601L0 601Z" fill="#930705"></path><path d="M0 485L21.5 488.2C43 491.3 86 497.7 128.8 503.2C171.7 508.7 214.3 513.3 257.2 513.5C300 513.7 343 509.3 385.8 507C428.7 504.7 471.3 504.3 514.2 506.3C557 508.3 600 512.7 642.8 510.8C685.7 509 728.3 501 771.2 500C814 499 857 505 878.5 508L900 511L900 601L878.5 601C857 601 814 601 771.2 601C728.3 601 685.7 601 642.8 601C600 601 557 601 514.2 601C471.3 601 428.7 601 385.8 601C343 601 300 601 257.2 601C214.3 601 171.7 601 128.8 601C86 601 43 601 21.5 601L0 601Z" fill="#850606"></path><path d="M0 550L21.5 553.5C43 557 86 564 128.8 567.8C171.7 571.7 214.3 572.3 257.2 565.2C300 558 343 543 385.8 540.8C428.7 538.7 471.3 549.3 514.2 554.3C557 559.3 600 558.7 642.8 559.8C685.7 561 728.3 564 771.2 565.3C814 566.7 857 566.3 878.5 566.2L900 566L900 601L878.5 601C857 601 814 601 771.2 601C728.3 601 685.7 601 642.8 601C600 601 557 601 514.2 601C471.3 601 428.7 601 385.8 601C343 601 300 601 257.2 601C214.3 601 171.7 601 128.8 601C86 601 43 601 21.5 601L0 601Z" fill="#770606"></path></svg>